name rise45.9887peak57.8056fall74.9286.mot
datacolumns 19
datarows 11
range 0.87168200000000 0.88833500000000
endheader
time	ground_force1_vx	ground_force1_vy	ground_force1_vz	ground_force1_px	ground_force1_py	ground_force1_pz	ground_force2_vx	ground_force2_vy	ground_force2_vz	ground_force2_px	ground_force2_py	ground_force2_pz	ground_torque1_x	ground_torque1_y	ground_torque1_z	ground_torque2_x	ground_torque2_y	ground_torque2_z	
0.87168200000000	-10.60247200000000	40.65832600000000	-11.05447300000000	0.33512200000000	0.00000000000000	0.09842500000000	-54.88113100000000	790.14084400000002	-45.69157700000000	0.15787800000000	0.00000000000000	-0.07969400000000	0.00000000000000	-7.42255300000000	0.00000000000000	0.00000000000000	-21.36228100000000	0.00000000000000	
0.87333400000000	-11.68317900000000	47.52762500000000	-12.49808500000000	0.33944800000000	0.00000000000000	0.09913900000000	-55.66105600000000	787.66077700000005	-45.30227800000000	0.15681000000000	0.00000000000000	-0.07958000000000	0.00000000000000	-8.48605400000000	0.00000000000000	0.00000000000000	-21.28279900000000	0.00000000000000	
0.87500300000000	-12.58043700000000	54.44902600000000	-13.83393200000000	0.34365700000000	0.00000000000000	0.09978300000000	-56.45544700000000	785.08460100000002	-44.90176300000000	0.15574900000000	0.00000000000000	-0.07946400000000	0.00000000000000	-9.50022500000000	0.00000000000000	0.00000000000000	-21.20509500000000	0.00000000000000	
0.87667100000000	-13.26644400000000	61.33029400000000	-15.03279000000000	0.34776100000000	0.00000000000000	0.10036800000000	-57.26363400000000	782.41001400000005	-44.48997400000000	0.15469900000000	0.00000000000000	-0.07934300000000	0.00000000000000	-10.44411800000000	0.00000000000000	0.00000000000000	-21.12911100000000	0.00000000000000	
0.87833300000000	-13.72481100000000	68.10240000000000	-16.07474900000000	0.35176700000000	0.00000000000000	0.10090100000000	-58.08486300000000	779.63461199999995	-44.06685000000000	0.15365900000000	0.00000000000000	-0.07922000000000	0.00000000000000	-11.30238800000000	0.00000000000000	0.00000000000000	-21.05477100000000	0.00000000000000	
0.87999900000000	-13.95040900000000	74.72154399999999	-16.94940500000000	0.35568200000000	0.00000000000000	0.10139200000000	-58.91828900000000	776.75589500000001	-43.63232400000000	0.15263200000000	0.00000000000000	-0.07909200000000	0.00000000000000	-12.06565400000000	0.00000000000000	0.00000000000000	-20.98198000000000	0.00000000000000	
0.88168900000000	-13.94832900000000	81.16876600000001	-17.65526300000000	0.35950900000000	0.00000000000000	0.10184500000000	-59.76297800000000	773.77127599999994	-43.18632700000000	0.15161800000000	0.00000000000000	-0.07896100000000	0.00000000000000	-12.73030600000000	0.00000000000000	0.00000000000000	-20.91062500000000	0.00000000000000	
0.88333400000000	-13.73216700000000	87.44758700000000	-18.19849500000000	0.36325400000000	0.00000000000000	0.10226600000000	-60.61790900000000	770.67808400000001	-42.72879000000000	0.15061900000000	0.00000000000000	-0.07882600000000	0.00000000000000	-13.29788700000000	0.00000000000000	0.00000000000000	-20.84057300000000	0.00000000000000	
0.88500200000000	-13.32192200000000	93.58020600000000	-18.59129900000000	0.36691800000000	0.00000000000000	0.10265900000000	-61.48196900000000	767.47357899999997	-42.25964300000000	0.14963500000000	0.00000000000000	-0.07868800000000	0.00000000000000	-13.77413800000000	0.00000000000000	0.00000000000000	-20.77167500000000	0.00000000000000	
0.88667800000000	-12.74171900000000	99.60281999999999	-18.85003600000000	0.37050400000000	0.00000000000000	0.10302700000000	-62.35396000000000	764.15495599999997	-41.77882200000000	0.14866800000000	0.00000000000000	-0.07854500000000	0.00000000000000	-14.16787500000000	0.00000000000000	0.00000000000000	-20.70376400000000	0.00000000000000	
0.88833500000000	-12.01759300000000	105.56061500000000	-18.99336800000000	0.37401200000000	0.00000000000000	0.10337300000000	-63.23259100000000	760.71935699999995	-41.28626500000000	0.14771800000000	0.00000000000000	-0.07839900000000	0.00000000000000	-14.48979300000000	0.00000000000000	0.00000000000000	-20.63665500000000	0.00000000000000	
